<svg xmlns="http://www.w3.org/2000/svg" width="400" height="500" viewBox="0 0 400 500"><rect width="100%" height="100%" fill="#2c3e50"/><path fill="#ffffff" d="M97.04 238.87h2.54v18.07h-2.96v-11.68q0-.7.07-1.51l-5.46 10.26q-.39.74-1.19.74h-.47q-.8 0-1.19-.74l-5.52-10.3.06.82q.02.4.02.73v11.68h-2.96v-18.07h2.54q.22 0 .39.01.16.01.29.06t.24.16q.1.11.2.3l5.42 10.04q.21.4.39.82.18.43.36.88.17-.46.36-.89.19-.44.4-.84l5.34-10.01q.1-.19.21-.3t.24-.16.3-.06q.16-.01.38-.01m12.85 14.76v-2.17q-1.33.07-2.25.24-.91.16-1.46.43-.55.26-.79.61-.23.35-.23.76 0 .81.48 1.17.48.34 1.25.34.95 0 1.65-.34.69-.34 1.35-1.04m-6.52-6.74-.55-.99q2.21-2.02 5.32-2.02 1.13 0 2.02.37.88.36 1.5 1.02.61.66.93 1.57t.32 2v8.1h-1.4q-.44 0-.68-.13t-.37-.53l-.28-.93q-.49.44-.95.77t-.96.56q-.5.22-1.07.34t-1.26.12q-.81 0-1.5-.22-.68-.22-1.18-.66-.5-.43-.78-1.08-.27-.65-.27-1.52 0-.48.16-.96.16-.49.53-.92.37-.44.96-.83.58-.39 1.44-.67.86-.29 1.99-.47 1.14-.18 2.6-.22v-.75q0-1.29-.55-1.91t-1.58-.62q-.75 0-1.25.18-.49.17-.87.39-.37.22-.68.4-.3.17-.68.17-.32 0-.55-.17-.22-.17-.36-.39m22.44-1.19-.82 1.13q-.13.17-.27.27-.13.1-.38.1-.23 0-.46-.14-.22-.15-.54-.33-.31-.18-.74-.32-.43-.15-1.07-.15-.81 0-1.42.3-.62.29-1.02.84-.41.55-.61 1.33t-.2 1.77q0 1.03.22 1.83t.63 1.34 1 .83q.59.28 1.33.28.73 0 1.19-.18.46-.19.77-.4.31-.22.54-.4.23-.19.52-.19.38 0 .56.29l.89 1.13q-.51.6-1.11 1-.6.41-1.25.65-.64.25-1.32.35t-1.36.1q-1.18 0-2.23-.45-1.05-.44-1.84-1.29t-1.25-2.08q-.45-1.23-.45-2.81 0-1.41.4-2.62.41-1.2 1.2-2.08.79-.89 1.95-1.39t2.67-.5q1.44 0 2.52.47 1.08.46 1.95 1.32m13.05-1.59v2.29h-4.58v10.54h-3.09V246.4h-4.56v-2.29zm4.26 4.94h5.82q0-.6-.17-1.13-.16-.53-.5-.93t-.86-.63-1.2-.23q-1.34 0-2.11.76t-.98 2.16m7.87 1.86h-7.93q.07.99.35 1.71.27.72.72 1.19t1.07.7 1.37.23 1.29-.18q.55-.17.95-.38.41-.22.71-.39.31-.18.6-.18.39 0 .57.29l.89 1.13q-.51.6-1.15 1-.64.41-1.33.65-.69.25-1.41.35t-1.4.1q-1.33 0-2.48-.45-1.15-.44-2-1.31t-1.34-2.15-.49-2.97q0-1.31.43-2.47.42-1.15 1.21-2.01.8-.86 1.94-1.36 1.15-.5 2.58-.5 1.22 0 2.24.39 1.03.39 1.76 1.13.74.75 1.16 1.83t.42 2.47q0 .7-.15.94t-.58.24m6.13-3.05v5.75q.52.64 1.14.9.62.27 1.35.27.7 0 1.26-.27.56-.26.95-.8.4-.53.61-1.35t.21-1.93q0-1.13-.18-1.91t-.52-1.27q-.33-.49-.82-.71-.48-.23-1.09-.23-.96 0-1.64.41-.67.41-1.27 1.14m-.41-3.18.25 1.18q.78-.88 1.78-1.43t2.35-.55q1.05 0 1.92.43.87.44 1.5 1.27t.98 2.05q.34 1.22.34 2.8 0 1.43-.39 2.66-.38 1.22-1.1 2.12t-1.74 1.41-2.28.51q-1.08 0-1.84-.33-.76-.34-1.36-.92v5.25h-3.09v-17.02h1.89q.6 0 .79.57m27.23-.57h1.88v12.83h-3.09v-7.49q0-.29.03-.63t.08-.69q-.25.57-.55 1.01-.02.02-.25.34-.22.32-.58.82-.35.5-.8 1.13t-.92 1.28q-1.08 1.54-2.46 3.48-.17.26-.46.51-.28.25-.64.25h-1.89v-12.82h3.09v7.48q0 .29-.03.64-.03.34-.08.69.27-.61.55-1.01.01-.03.24-.34.22-.31.58-.81.35-.5.8-1.13.45-.64.92-1.3 1.08-1.54 2.47-3.47.18-.28.46-.52.29-.25.65-.25m28.55-5.24h2.54v18.07h-2.96v-11.68q0-.7.07-1.51l-5.46 10.26q-.39.74-1.19.74h-.47q-.8 0-1.19-.74l-5.52-10.3.06.82q.02.4.02.73v11.68h-2.96v-18.07h2.54q.22 0 .39.01.16.01.29.06t.24.16q.1.11.2.3l5.42 10.04q.21.4.39.82.18.43.36.88.17-.46.36-.89.19-.44.4-.84l5.34-10.01q.1-.19.21-.3t.24-.16.3-.06q.16-.01.38-.01m12.85 14.76v-2.17q-1.33.07-2.25.24-.91.16-1.46.43-.55.26-.79.61-.23.35-.23.76 0 .81.48 1.17.48.34 1.25.34.95 0 1.65-.34.69-.34 1.35-1.04m-6.52-6.74-.55-.99q2.21-2.02 5.32-2.02 1.13 0 2.02.37.88.36 1.5 1.02.61.66.93 1.57t.32 2v8.1h-1.4q-.44 0-.68-.13t-.37-.53l-.28-.93q-.49.44-.95.77t-.96.56q-.5.22-1.07.34t-1.26.12q-.81 0-1.5-.22-.68-.22-1.18-.66-.5-.43-.78-1.08-.27-.65-.27-1.52 0-.48.16-.96.16-.49.53-.92.37-.44.96-.83.58-.39 1.44-.67.86-.29 1.99-.47 1.14-.18 2.6-.22v-.75q0-1.29-.55-1.91t-1.58-.62q-.75 0-1.25.18-.49.17-.87.39-.37.22-.68.4-.3.17-.68.17-.32 0-.55-.17-.22-.17-.36-.39m15.52.97v5.75q.53.64 1.15.9.62.27 1.34.27.7 0 1.26-.27.57-.26.96-.8.39-.53.61-1.35.21-.82.21-1.93 0-1.13-.18-1.91t-.52-1.27-.82-.71q-.48-.23-1.09-.23-.97 0-1.64.41-.68.41-1.28 1.14m-.41-3.18.25 1.18q.79-.88 1.79-1.43t2.35-.55q1.05 0 1.92.43.87.44 1.5 1.27t.97 2.05q.35 1.22.35 2.8 0 1.43-.39 2.66-.39 1.22-1.11 2.12t-1.74 1.41q-1.01.51-2.28.51-1.07 0-1.83-.33-.77-.34-1.37-.92v5.25h-3.08v-17.02h1.88q.6 0 .79.57m20.2-.57v2.29h-5.6v10.54h-3.09v-12.83zm8.6 9.52v-2.17q-1.34.07-2.25.24-.91.16-1.46.43-.55.26-.79.61t-.24.76q0 .81.48 1.17.49.34 1.26.34.95 0 1.64-.34.7-.34 1.36-1.04m-6.52-6.74-.55-.99q2.21-2.02 5.32-2.02 1.13 0 2.01.37.89.36 1.5 1.02.62.66.93 1.57.32.91.32 2v8.1h-1.4q-.43 0-.67-.13t-.38-.53l-.27-.93q-.49.44-.95.77t-.96.56q-.5.22-1.07.34t-1.26.12q-.81 0-1.5-.22t-1.19-.66q-.5-.43-.77-1.08-.28-.65-.28-1.52 0-.48.17-.96.16-.49.53-.92.37-.44.95-.83.59-.39 1.45-.67.85-.29 1.99-.47t2.6-.22v-.75q0-1.29-.55-1.91t-1.59-.62q-.75 0-1.24.18-.49.17-.87.39-.37.22-.68.4-.31.17-.68.17-.33 0-.55-.17-.23-.17-.36-.39m15.52.97v5.75q.53.64 1.14.9.62.27 1.35.27.7 0 1.26-.27.56-.26.96-.8.39-.53.6-1.35.22-.82.22-1.93 0-1.13-.19-1.91-.18-.78-.51-1.27-.34-.49-.82-.71-.48-.23-1.1-.23-.96 0-1.63.41-.68.41-1.28 1.14m-.41-3.18.25 1.18q.79-.88 1.79-1.43t2.35-.55q1.05 0 1.91.43.87.44 1.5 1.27.64.83.98 2.05t.34 2.8q0 1.43-.38 2.66-.39 1.22-1.11 2.12t-1.74 1.41-2.28.51q-1.07 0-1.84-.33-.76-.34-1.36-.92v5.25h-3.09v-17.02h1.89q.6 0 .79.57m21.16-.57h1.88v12.83h-3.09v-7.49q0-.29.03-.63t.08-.69q-.25.57-.55 1.01-.02.02-.25.34-.22.32-.58.82t-.81 1.13-.91 1.28q-1.09 1.54-2.46 3.48-.18.26-.46.51t-.64.25h-1.89v-12.82h3.09v7.48q0 .29-.03.64-.03.34-.08.69.27-.61.55-1.01.01-.03.23-.34.23-.31.58-.81.36-.5.81-1.13.45-.64.91-1.3 1.09-1.54 2.48-3.47.17-.28.46-.52.29-.25.65-.25m15.93 0v2.29h-4.58v10.54h-3.09V246.4h-4.56v-2.29zm8.6 9.52v-2.17q-1.34.07-2.25.24-.92.16-1.47.43-.55.26-.78.61-.24.35-.24.76 0 .81.48 1.17.48.34 1.26.34.95 0 1.64-.34t1.36-1.04m-6.53-6.74-.55-.99q2.21-2.02 5.33-2.02 1.12 0 2.01.37.89.36 1.5 1.02t.93 1.57.32 2v8.1h-1.4q-.44 0-.68-.13-.23-.13-.37-.53l-.28-.93q-.48.44-.95.77-.46.33-.96.56-.5.22-1.07.34t-1.25.12q-.82 0-1.5-.22-.69-.22-1.19-.66-.5-.43-.78-1.08-.27-.65-.27-1.52 0-.48.16-.96.16-.49.53-.92.37-.44.96-.83t1.44-.67q.86-.29 2-.47 1.13-.18 2.6-.22v-.75q0-1.29-.55-1.91t-1.59-.62q-.75 0-1.25.18-.49.17-.86.39l-.69.4q-.3.17-.68.17-.32 0-.55-.17-.22-.17-.36-.39"/></svg>