<svg xmlns="http://www.w3.org/2000/svg" width="400" height="500" viewBox="0 0 400 500"><rect width="100%" height="100%" fill="#34495e"/><path fill="#ffffff" d="M86.825 241.095v14.46h-2.7v-12.39h-6.28v12.39h-2.71v-14.46zm5.3 7.2v4.6q.42.51.92.72.49.21 1.07.21.56 0 1.01-.21t.77-.64q.31-.43.48-1.09.17-.65.17-1.54 0-.9-.14-1.53-.14-.62-.42-1.01-.27-.39-.65-.57t-.88-.18q-.77 0-1.31.32-.54.33-1.02.92m-.33-2.55.2.95q.63-.71 1.43-1.15.81-.44 1.89-.44.83 0 1.53.35.69.35 1.2 1.01.5.67.78 1.64.27.98.27 2.24 0 1.15-.31 2.13-.3.98-.88 1.7t-1.39 1.12q-.81.41-1.83.41-.86 0-1.47-.27-.61-.26-1.09-.73v4.2h-2.47v-13.61h1.52q.47 0 .62.45m11.16 3.5h4.66q0-.48-.13-.9-.14-.43-.41-.75t-.68-.5q-.42-.19-.97-.19-1.07 0-1.68.61-.62.61-.79 1.73m6.3 1.49h-6.35q.06.79.28 1.36.22.58.58.96.36.37.86.55.49.19 1.09.19t1.04-.14q.43-.14.76-.31.32-.17.57-.31.24-.14.47-.14.31 0 .46.23l.71.9q-.41.48-.92.81-.51.32-1.06.51-.56.2-1.13.28-.58.08-1.12.08-1.07 0-1.99-.36-.92-.35-1.6-1.05-.68-.69-1.07-1.72-.39-1.02-.39-2.37 0-1.05.34-1.98.34-.92.98-1.61.63-.68 1.55-1.08.91-.4 2.06-.4.97 0 1.79.31t1.41.9q.59.6.93 1.46.33.87.33 1.98 0 .56-.12.76-.12.19-.46.19m10.43-4.17-.65.9q-.11.14-.21.22-.11.08-.31.08-.19 0-.37-.12l-.43-.26q-.25-.14-.59-.26-.35-.11-.86-.11-.65 0-1.14.24-.49.23-.81.67-.33.44-.49 1.06-.16.63-.16 1.42 0 .82.18 1.46.17.64.5 1.07.33.44.8.66.47.23 1.06.23t.96-.15q.36-.14.61-.31.25-.18.44-.33.18-.14.41-.14.3 0 .45.23l.71.9q-.41.48-.89.81-.48.32-.99.51-.52.2-1.06.28-.55.08-1.09.08-.95 0-1.79-.36-.84-.35-1.47-1.03t-.99-1.67q-.37-.98-.37-2.24 0-1.13.33-2.1.32-.96.95-1.67.63-.7 1.56-1.1t2.14-.4q1.15 0 2.02.37.86.37 1.55 1.06m10.44-1.27v1.83h-3.66v8.43h-2.47v-8.43h-3.65v-1.83zm8.8 0h1.98l-5.59 13.08q-.11.26-.28.39-.18.14-.54.14h-1.84l1.92-4.12-4.15-9.49h2.17q.29 0 .46.14.16.14.24.32l2.18 5.32q.11.27.19.54.07.27.14.55l.18-.56q.09-.27.2-.54l2.06-5.31q.08-.2.27-.33.18-.13.41-.13m12.15 0v10.26h-2.47v-8.43h-4v8.43h-2.47v-10.26zm11.97 0v10.26h-2.47v-8.37h-2.52q-.12 1.89-.37 3.25-.25 1.37-.59 2.32-.35.95-.77 1.52-.43.58-.91.9t-.99.42q-.51.11-1.03.11-.55 0-.8-.09-.26-.1-.26-.27v-1.54h.59q.33 0 .66-.1t.64-.41.59-.89q.28-.57.52-1.52.23-.94.41-2.31t.28-3.28zm4.39 3.95h4.66q0-.48-.13-.9-.14-.43-.41-.75t-.68-.5q-.42-.19-.97-.19-1.07 0-1.68.61-.62.61-.79 1.73m6.3 1.49h-6.35q.06.79.28 1.36.22.58.58.96.36.37.86.55.49.19 1.09.19t1.04-.14q.43-.14.76-.31.32-.17.57-.31.24-.14.47-.14.31 0 .46.23l.71.9q-.41.48-.92.81-.51.32-1.06.51-.56.2-1.13.28-.58.08-1.12.08-1.07 0-1.99-.36-.92-.35-1.6-1.05-.68-.69-1.07-1.72-.39-1.02-.39-2.37 0-1.05.34-1.98.34-.92.98-1.61.63-.68 1.55-1.08.91-.4 2.06-.4.97 0 1.79.31t1.41.9q.59.6.93 1.46.33.87.33 1.98 0 .56-.12.76-.12.19-.46.19m8.9-5.44h2.47v10.26h-2.47v-4.54h-4v4.54h-2.47v-10.26h2.47v3.89h4zm12.64 0h1.5v10.26h-2.47v-5.99q0-.23.03-.51.02-.27.06-.55-.2.46-.44.81-.02.02-.2.28-.18.25-.46.65l-.65.9q-.36.51-.73 1.03-.87 1.23-1.97 2.78-.14.21-.36.41-.23.2-.52.2h-1.51v-10.26h2.47v5.99q0 .23-.02.51-.03.27-.07.55.22-.49.44-.81.01-.02.19-.27l.47-.65q.28-.4.64-.9.36-.51.73-1.04.87-1.23 1.98-2.78.14-.22.37-.41.23-.2.52-.2m5.89 3.95h4.66q0-.48-.13-.9-.14-.43-.41-.75t-.68-.5q-.42-.19-.97-.19-1.07 0-1.68.61-.62.61-.79 1.73m6.3 1.49h-6.35q.06.79.28 1.36.22.58.58.96.36.37.86.55.49.19 1.09.19t1.04-.14q.43-.14.76-.31.32-.17.57-.31.24-.14.47-.14.31 0 .46.23l.71.9q-.41.48-.92.81-.51.32-1.06.51-.56.2-1.13.28-.58.08-1.12.08-1.07 0-1.99-.36-.92-.35-1.6-1.05-.68-.69-1.07-1.72-.39-1.02-.39-2.37 0-1.05.34-1.98.34-.92.98-1.61.63-.68 1.55-1.08.91-.4 2.06-.4.97 0 1.79.31t1.41.9q.59.6.93 1.46.33.87.33 1.98 0 .56-.12.76-.12.19-.46.19m15.01-5.44h1.5v10.26h-2.47v-5.99q0-.23.03-.51.02-.27.06-.55-.2.46-.44.81-.02.02-.2.28-.18.25-.46.65l-.65.9q-.36.51-.73 1.03-.87 1.23-1.97 2.78-.14.21-.36.41-.23.2-.52.2h-1.51v-10.26h2.47v5.99q0 .23-.02.51-.03.27-.07.55.22-.49.44-.81.01-.02.19-.27l.47-.65q.28-.4.64-.9.36-.51.73-1.04.87-1.23 1.98-2.78.14-.22.37-.41.23-.2.52-.2m15.27 0h2.47v10.26h-2.47v-4.54h-4v4.54h-2.47v-10.26h2.47v3.89h4zm10.34 7.61v-1.73q-1.07.05-1.8.18-.73.14-1.17.35t-.63.49-.19.61q0 .65.39.93.38.28 1 .28.76 0 1.32-.27.55-.28 1.08-.84m-5.22-5.39-.44-.79q1.77-1.62 4.26-1.62.9 0 1.61.3.71.29 1.2.81.49.53.75 1.26.25.73.25 1.6v6.48h-1.12q-.35 0-.54-.1-.19-.11-.3-.43l-.22-.74q-.39.35-.76.61-.37.27-.77.45t-.85.28q-.46.09-1.01.09-.65 0-1.2-.17-.55-.18-.95-.53t-.62-.87-.22-1.21q0-.39.13-.78.13-.38.43-.73.29-.35.76-.66t1.16-.54q.68-.23 1.59-.38.91-.14 2.08-.17v-.6q0-1.03-.44-1.53-.44-.49-1.27-.49-.6 0-.99.14-.4.14-.7.32-.3.17-.54.31-.25.14-.55.14-.26 0-.44-.14-.18-.13-.29-.31m14.33 1.38 1.75-2.95q.18-.29.49-.47t.66-.18h1.94l-2.39 3.81q-.25.4-.51.65-.26.24-.63.38.5.15.82.44.32.3.58.75l2.4 4.23h-1.71q-.65 0-1.01-.22t-.61-.63l-1.51-2.84q-.2-.37-.51-.55-.32-.18-.74-.18h-.93v4.42h-2.47v-10.26h2.47v4.23h.8q.42 0 .68-.16.25-.15.43-.47m11.9 4.01v-1.73q-1.07.05-1.8.18-.73.14-1.17.35t-.63.49-.19.61q0 .65.39.93.38.28 1 .28.76 0 1.32-.27.55-.28 1.08-.84m-5.22-5.39-.44-.79q1.77-1.62 4.26-1.62.9 0 1.61.3.71.29 1.2.81.49.53.75 1.26.25.73.25 1.6v6.48h-1.12q-.35 0-.54-.1-.19-.11-.3-.43l-.22-.74q-.39.35-.76.61-.37.27-.77.45t-.85.28q-.46.09-1.01.09-.65 0-1.2-.17-.55-.18-.95-.53t-.62-.87-.22-1.21q0-.39.13-.78.13-.38.43-.73.29-.35.76-.66t1.16-.54q.68-.23 1.59-.38.91-.14 2.08-.17v-.6q0-1.03-.44-1.53-.44-.49-1.27-.49-.6 0-.99.14-.4.14-.7.32-.3.17-.54.31-.25.14-.55.14-.26 0-.44-.14-.18-.13-.29-.31m9.91-.16-.56-.95q.58-.56 1.44-.91.86-.36 2.06-.36.95 0 1.69.22.74.23 1.25.61.5.39.77.88.26.5.26 1.04 0 .29-.08.6-.09.32-.28.62-.2.3-.52.55-.32.26-.79.44.84.32 1.36.94.51.62.51 1.53 0 .75-.34 1.33-.35.58-.92.98-.57.41-1.3.62-.74.21-1.52.21-.44 0-.94-.08-.51-.08-1.02-.28-.51-.19-1-.51-.49-.33-.89-.81l.71-.9q.15-.23.45-.23.23 0 .44.14.21.15.49.33.27.17.65.31.38.15.95.15.93 0 1.41-.42t.48-1.05q0-.62-.49-.97-.5-.35-1.61-.35h-1.16v-1.61h1.16q.97 0 1.49-.34t.52-.9q0-.51-.45-.84-.46-.33-1.35-.33-.53 0-.9.11t-.63.23q-.27.13-.45.24t-.34.11q-.17 0-.29-.07-.12-.06-.26-.28m14.47 5.55v-1.73q-1.07.05-1.8.18-.73.14-1.17.35t-.63.49-.19.61q0 .65.39.93.38.28 1 .28.76 0 1.32-.27.55-.28 1.08-.84m-5.22-5.39-.44-.79q1.77-1.62 4.26-1.62.9 0 1.61.3.71.29 1.2.81.49.53.75 1.26.25.73.25 1.6v6.48h-1.12q-.35 0-.54-.1-.19-.11-.3-.43l-.22-.74q-.39.35-.76.61-.37.27-.77.45t-.85.28q-.46.09-1.01.09-.65 0-1.2-.17-.55-.18-.95-.53t-.62-.87-.22-1.21q0-.39.13-.78.13-.38.43-.73.29-.35.76-.66t1.16-.54q.68-.23 1.59-.38.91-.14 2.08-.17v-.6q0-1.03-.44-1.53-.44-.49-1.27-.49-.6 0-.99.14-.4.14-.7.32-.3.17-.54.31-.25.14-.55.14-.26 0-.44-.14-.18-.13-.29-.31m16.42-2.22h2.47v10.26h-2.47v-4.54h-4v4.54h-2.47v-10.26h2.47v3.89h4zm12.64 0h1.5v10.26h-2.47v-5.99q0-.23.03-.51.02-.27.06-.55-.2.46-.43.81-.03.02-.21.28-.18.25-.46.65l-.65.9q-.36.51-.73 1.03-.87 1.23-1.97 2.78-.14.21-.36.41-.23.2-.51.2h-1.52v-10.26h2.47v5.99q0 .23-.02.51-.03.27-.07.55.23-.49.45-.81 0-.02.19-.27.17-.25.46-.65t.64-.9q.36-.51.74-1.04.86-1.23 1.97-2.78.14-.22.37-.41.24-.2.52-.2m5.89 3.95h4.66q0-.48-.13-.9-.14-.43-.41-.75t-.68-.5q-.42-.19-.97-.19-1.06 0-1.68.61t-.79 1.73m6.3 1.49h-6.35q.06.79.28 1.36.22.58.58.96.36.37.86.55.49.19 1.09.19t1.04-.14q.43-.14.76-.31.32-.17.57-.31.24-.14.47-.14.31 0 .46.23l.71.9q-.41.48-.92.81-.51.32-1.06.51-.56.2-1.13.28-.58.08-1.12.08-1.07 0-1.99-.36-.92-.35-1.6-1.05-.68-.69-1.07-1.72-.39-1.02-.39-2.37 0-1.05.34-1.98.34-.92.98-1.61.63-.68 1.55-1.08.91-.4 2.06-.4.97 0 1.79.31t1.41.9q.59.6.93 1.46.33.87.33 1.98 0 .56-.12.76-.12.19-.46.19"/></svg>