<svg xmlns="http://www.w3.org/2000/svg" width="400" height="500" viewBox="0 0 400 500"><rect width="100%" height="100%" fill="#2c3e50"/><path fill="#ffffff" d="M117.58 277.975h13.52v9.62H89.5v-9.62h15.24v-43.84q0-2.6.15-5.35l-10.81 9.05q-.94.72-1.85.91-.91.18-1.72.02-.8-.15-1.43-.54-.62-.39-.93-.86l-4.06-5.57 22.93-19.5h10.56zm37.18-43q0 6.29 3.25 9.59t9.23 3.3q3.12 0 5.56-.99 2.45-.98 4.11-2.7 1.67-1.72 2.52-4.06.86-2.34.86-5.04 0-3.07-.93-5.49-.94-2.41-2.66-4.08-1.71-1.66-4.08-2.55-2.36-.88-5.17-.88-2.91 0-5.25.96t-4.01 2.68q-1.66 1.72-2.55 4.08-.88 2.37-.88 5.18m-6.29 52.62 23.35-29.17q.88-1.09 1.66-2.13t1.51-2.08q-2.6 1.66-5.72 2.52t-6.55.86q-3.9 0-7.65-1.36-3.74-1.35-6.65-4.08-2.92-2.73-4.71-6.76t-1.79-9.44q0-5.04 1.87-9.46t5.25-7.75 8.11-5.25 10.45-1.92q5.78 0 10.38 1.82t7.85 5.09q3.25 3.28 4.99 7.85 1.74 4.58 1.74 10.04 0 3.48-.59 6.6-.6 3.12-1.69 6.01-1.1 2.89-2.66 5.64-1.56 2.76-3.48 5.46l-17.21 24.55q-.89 1.24-2.65 2.1-1.77.86-4.01.86zm79.61-9.2q3.17 0 5.56-.91 2.4-.91 4.03-2.53 1.64-1.61 2.47-3.84.84-2.24.84-4.84 0-6.19-3.44-9.36-3.43-3.17-9.46-3.17t-9.46 3.17q-3.44 3.17-3.44 9.36 0 2.6.84 4.84.83 2.23 2.47 3.84 1.63 1.62 4.03 2.53 2.39.91 5.56.91m0-57.15q-2.86 0-4.94.88-2.08.89-3.46 2.37t-2.03 3.4q-.65 1.93-.65 4.06 0 2.24.55 4.34.55 2.11 1.85 3.75 1.3 1.63 3.43 2.62t5.25.99 5.25-.99 3.43-2.62q1.3-1.64 1.85-3.75.55-2.1.55-4.34 0-2.13-.68-4.06-.68-1.92-2.03-3.4t-3.43-2.37q-2.08-.88-4.94-.88m12.69 27.14q6.86 2.24 10.14 6.84 3.27 4.6 3.27 11.26 0 4.99-1.89 9.05-1.9 4.05-5.33 6.91-3.44 2.86-8.25 4.42t-10.63 1.56-10.63-1.56-8.25-4.42q-3.43-2.86-5.33-6.91-1.89-4.06-1.89-9.05 0-6.66 3.27-11.26 3.28-4.6 10.14-6.84-5.46-2.29-8.19-6.5t-2.73-10.14q0-4.26 1.74-7.95 1.75-3.7 4.87-6.43t7.46-4.26 9.54-1.53 9.54 1.53 7.46 4.26 4.87 6.43q1.74 3.69 1.74 7.95 0 5.93-2.73 10.14t-8.19 6.5m31.61 10.87h22.88v-24.6q0-3.48.47-7.69zm34.06 0h9.47v7.44q0 1.04-.68 1.79-.67.75-1.92.75h-6.87v18.36h-11.18v-18.36h-31.72q-1.3 0-2.28-.8-.99-.81-1.25-2l-1.35-6.5 35.62-47.58h12.16z"/></svg>