<svg xmlns="http://www.w3.org/2000/svg" width="400" height="500" viewBox="0 0 400 500"><rect width="100%" height="100%" fill="#2c3e50"/><path fill="#ffffff" d="M96.435 233.08v3.93h-11.81v23.54h-5.13v-27.47zm13.19 22.43v-3.28q-2.03.09-3.42.35t-2.22.66q-.84.39-1.2.93-.36.53-.36 1.16 0 1.23.73 1.76t1.91.53q1.44 0 2.5-.52 1.05-.52 2.06-1.59m-9.92-10.24-.83-1.5q3.36-3.08 8.09-3.08 1.71 0 3.06.57 1.35.56 2.28 1.55.93 1 1.42 2.39.48 1.39.48 3.04v12.31h-2.13q-.66 0-1.02-.2-.37-.2-.57-.81l-.42-1.4q-.74.66-1.45 1.17-.7.5-1.46.84t-1.62.52q-.87.18-1.91.18-1.24 0-2.28-.33-1.05-.33-1.81-1-.76-.66-1.18-1.65-.41-.99-.41-2.3 0-.74.24-1.47.25-.73.81-1.4.56-.66 1.45-1.25.9-.59 2.2-1.03 1.3-.43 3.03-.71t3.95-.33v-1.14q0-1.96-.84-2.9-.83-.94-2.41-.94-1.14 0-1.89.27-.75.26-1.32.59-.57.34-1.03.6-.47.27-1.04.27-.49 0-.84-.26-.34-.25-.55-.6m23.6 1.49v8.74q.8.97 1.74 1.36.94.4 2.04.4 1.07 0 1.92-.4.86-.39 1.45-1.21.6-.82.93-2.06.32-1.25.32-2.94 0-1.71-.28-2.9-.27-1.18-.79-1.92-.51-.75-1.24-1.09t-1.66-.34q-1.47 0-2.49.62-1.03.62-1.94 1.74m-.63-4.85.38 1.81q1.2-1.35 2.72-2.19t3.57-.84q1.6 0 2.92.67t2.28 1.93 1.48 3.11q.52 1.86.52 4.25 0 2.19-.59 4.05-.58 1.86-1.68 3.23-1.09 1.37-2.64 2.14-1.55.76-3.47.76-1.63 0-2.79-.5t-2.07-1.39v7.98h-4.69v-25.86h2.87q.91 0 1.19.85m22.2 4.85v8.74q.79.97 1.73 1.36.94.4 2.05.4 1.06 0 1.92-.4.85-.39 1.45-1.21t.92-2.06q.32-1.25.32-2.94 0-1.71-.27-2.9-.28-1.18-.79-1.92-.51-.75-1.24-1.09-.74-.34-1.67-.34-1.46 0-2.49.62-1.02.62-1.93 1.74m-.63-4.85.38 1.81q1.2-1.35 2.72-2.19t3.57-.84q1.59 0 2.91.67t2.28 1.93 1.49 3.11q.52 1.86.52 4.25 0 2.19-.59 4.05t-1.68 3.23-2.64 2.14q-1.55.76-3.47.76-1.63 0-2.79-.5t-2.07-1.39v7.98h-4.7v-25.86h2.87q.91 0 1.2.85m32.17-.85h2.85v19.49h-4.7v-11.38q0-.44.05-.96t.12-1.05q-.38.87-.83 1.53-.04.04-.38.53-.34.48-.89 1.24l-1.22 1.72q-.69.96-1.39 1.95-1.65 2.34-3.74 5.28-.27.4-.69.78-.43.38-.98.38h-2.87v-19.49h4.69v11.38q0 .43-.05.96-.04.52-.12 1.05.42-.93.84-1.54.01-.04.36-.51l.88-1.24q.54-.76 1.23-1.72.68-.96 1.38-1.96 1.66-2.34 3.76-5.29.27-.41.71-.78.43-.37.99-.37m39.67-7.98v27.47h-5.15v-23.54h-11.93v23.54h-5.13v-27.47zm14 7.67q2.17 0 3.94.71 1.78.7 3.04 1.99 1.27 1.29 1.95 3.15.68 1.87.68 4.16 0 2.32-.68 4.19-.68 1.86-1.95 3.17-1.26 1.31-3.04 2.01-1.77.7-3.94.7-2.18 0-3.97-.7t-3.05-2.01-1.96-3.17q-.69-1.87-.69-4.19 0-2.29.69-4.16.7-1.86 1.96-3.15t3.05-1.99q1.79-.71 3.97-.71m0 16.48q2.43 0 3.6-1.64 1.17-1.63 1.17-4.79 0-3.15-1.17-4.8-1.17-1.66-3.6-1.66-2.47 0-3.66 1.67-1.18 1.66-1.18 4.79 0 3.14 1.18 4.78 1.19 1.65 3.66 1.65m29.93-16.17v3.47h-6.96v16.02h-4.69v-16.02h-6.94v-3.47zm19.49 0v3.47h-6.95v16.02h-4.7v-16.02h-6.93v-3.47zm6.48 7.5h8.85q0-.91-.25-1.72-.26-.81-.77-1.41-.52-.61-1.3-.96-.79-.35-1.84-.35-2.03 0-3.2 1.15-1.17 1.16-1.49 3.29m11.97 2.83h-12.07q.12 1.5.54 2.6.41 1.09 1.1 1.8.68.71 1.62 1.06.94.36 2.08.36t1.97-.27 1.44-.59q.62-.32 1.09-.59.46-.26.9-.26.59 0 .87.43l1.35 1.71q-.78.92-1.75 1.53-.97.62-2.02.99t-2.15.52q-1.09.15-2.12.15-2.03 0-3.78-.67-1.74-.67-3.04-1.99-1.29-1.33-2.03-3.27-.74-1.95-.74-4.51 0-2 .65-3.76.64-1.75 1.85-3.06 1.2-1.3 2.94-2.06t3.93-.76q1.84 0 3.4.59t2.68 1.72 1.75 2.77q.64 1.65.64 3.76 0 1.06-.23 1.43t-.87.37m9.31-4.63v8.74q.8.97 1.74 1.36.94.4 2.04.4 1.06 0 1.92-.4.85-.39 1.45-1.21t.92-2.06q.33-1.25.33-2.94 0-1.71-.28-2.9-.27-1.18-.79-1.92-.51-.75-1.24-1.09t-1.66-.34q-1.47 0-2.49.62-1.03.62-1.94 1.74m-.63-4.85.38 1.81q1.2-1.35 2.72-2.19t3.57-.84q1.6 0 2.92.67t2.28 1.93 1.48 3.11q.52 1.86.52 4.25 0 2.19-.59 4.05t-1.68 3.23-2.64 2.14q-1.55.76-3.47.76-1.63 0-2.79-.5t-2.07-1.39v7.98h-4.69v-25.86h2.86q.92 0 1.2.85"/></svg>