<svg xmlns="http://www.w3.org/2000/svg" width="400" height="500" viewBox="0 0 400 500"><rect width="100%" height="100%" fill="#2c3e50"/><path fill="#ffffff" d="M83.16 255.115h4.08q1.13 0 1.89-.27.77-.27 1.23-.72.45-.45.66-1.05.2-.6.2-1.27 0-.71-.23-1.27-.22-.56-.7-.96t-1.24-.61-1.82-.21h-4.07zm3.44-15.42h-3.44v6.27h3.21q2.08 0 3.13-.75 1.06-.75 1.06-2.38 0-1.7-.96-2.42t-3-.72m-7.47-3.12h7.47q2.13 0 3.64.4 1.52.41 2.49 1.16t1.41 1.82q.45 1.06.45 2.4 0 .76-.22 1.46-.23.7-.7 1.3-.47.61-1.2 1.11-.73.49-1.73.83 4.47 1.01 4.47 4.83 0 1.38-.53 2.56-.52 1.17-1.53 2.01-1 .85-2.47 1.33t-3.36.48h-8.19zm33.45 6.3v15.39h-3.71v-12.55h-3.78q-.18 2.83-.55 4.88-.38 2.04-.89 3.47-.52 1.43-1.16 2.29t-1.36 1.34-1.48.64q-.77.15-1.55.15-.82 0-1.2-.14-.39-.14-.39-.4v-2.31h.89q.49 0 .99-.14.49-.15.96-.62.46-.46.88-1.33.42-.86.78-2.28.35-1.41.62-3.47t.42-4.92zm11.79 11.42v-2.6q-1.61.07-2.7.28-1.1.2-1.76.52-.66.31-.94.73-.29.42-.29.91 0 .98.58 1.4t1.51.42q1.14 0 1.97-.41t1.63-1.25m-7.83-8.09-.66-1.18q2.65-2.43 6.39-2.43 1.35 0 2.41.44 1.07.44 1.8 1.23.74.79 1.12 1.88t.38 2.4v9.72h-1.68q-.52 0-.81-.16-.28-.16-.45-.63l-.33-1.12q-.58.53-1.14.93-.55.4-1.15.66-.6.28-1.28.42-.69.14-1.51.14-.98 0-1.8-.26-.83-.26-1.43-.79-.6-.52-.93-1.3-.33-.79-.33-1.82 0-.58.2-1.16.19-.58.64-1.1.44-.53 1.14-.99.71-.47 1.74-.82 1.02-.34 2.39-.56 1.36-.22 3.12-.26v-.9q0-1.54-.66-2.29-.66-.74-1.91-.74-.9 0-1.49.21t-1.04.47q-.45.27-.82.48t-.82.21q-.39 0-.66-.21-.27-.2-.43-.47m26.92-1.42-.97 1.35q-.17.21-.32.33-.16.12-.46.12-.29 0-.56-.18-.27-.17-.64-.39-.38-.21-.89-.39-.52-.17-1.29-.17-.97 0-1.71.35-.73.35-1.22 1.01t-.73 1.6-.24 2.13q0 1.22.27 2.18.26.96.75 1.62.5.65 1.2.99.71.34 1.59.34.89 0 1.44-.22.54-.22.92-.48.37-.26.65-.48t.62-.22q.45 0 .68.34l1.06 1.36q-.61.72-1.33 1.2-.72.49-1.49.78-.78.3-1.59.41-.82.12-1.63.12-1.43 0-2.69-.53t-2.2-1.55q-.95-1.02-1.49-2.5-.55-1.47-.55-3.36 0-1.7.49-3.15.48-1.44 1.43-2.5.94-1.06 2.34-1.66 1.39-.6 3.21-.6 1.72 0 3.02.56 1.3.55 2.33 1.59m15.66-1.91v2.75h-5.49v12.64h-3.7v-12.64h-5.48v-2.75zm5.12 5.93h6.99q0-.73-.2-1.36-.21-.64-.61-1.12-.41-.48-1.03-.76-.62-.27-1.45-.27-1.6 0-2.52.91-.93.92-1.18 2.6m9.45 2.23h-9.53q.09 1.19.42 2.05t.87 1.42q.54.57 1.29.84.74.28 1.64.28t1.55-.21 1.14-.46q.49-.26.86-.47.36-.21.71-.21.46 0 .69.34l1.06 1.36q-.61.72-1.38 1.2-.76.49-1.59.78-.84.3-1.7.41-.86.12-1.67.12-1.61 0-2.99-.53t-2.4-1.57-1.6-2.58q-.59-1.54-.59-3.57 0-1.57.51-2.96t1.47-2.41q.95-1.03 2.32-1.63t3.1-.6q1.45 0 2.68.47 1.23.46 2.12 1.35.88.9 1.39 2.19.5 1.3.5 2.97 0 .84-.18 1.13t-.69.29m17.92-8.16v15.39h-3.7v-12.55h-3.78q-.18 2.83-.56 4.88-.37 2.04-.89 3.47t-1.15 2.29q-.64.86-1.36 1.34t-1.49.64q-.76.15-1.54.15-.83 0-1.21-.14t-.38-.4v-2.31h.88q.5 0 .99-.14.5-.15.96-.62.47-.46.89-1.33.42-.86.77-2.28.35-1.41.62-3.47t.42-4.92zm15.24 0h2.25v15.39h-3.7v-8.98q0-.35.04-.76.03-.41.09-.83-.3.69-.66 1.21-.03.03-.3.41-.27.39-.69.99l-.97 1.35q-.54.76-1.1 1.54-1.3 1.84-2.95 4.17-.21.32-.55.62-.34.29-.77.29h-2.27v-15.39h3.71v8.99q0 .35-.04.76t-.1.83q.33-.74.66-1.21l.29-.41q.27-.37.7-.97.42-.61.96-1.36l1.1-1.55q1.3-1.85 2.97-4.17.21-.33.55-.63.35-.29.78-.29m15.62 0h3.7v15.39h-3.7v-6.81h-6v6.81h-3.71v-15.39h3.71v5.84h6zm21.24 5.4 2.62-4.42q.27-.44.74-.71.46-.27.99-.27h2.91l-3.59 5.72q-.37.6-.76.96-.39.37-.95.58.75.23 1.23.67t.87 1.12l3.6 6.34h-2.56q-.98 0-1.52-.33t-.91-.94l-2.27-4.27q-.3-.55-.77-.82t-1.1-.27h-1.4v6.63h-3.7v-15.39h3.7v6.35h1.2q.63 0 1.02-.24.38-.23.65-.71m16.53-5.64q1.71 0 3.11.56 1.4.55 2.4 1.57t1.54 2.49.54 3.29q0 1.83-.54 3.3-.54 1.46-1.54 2.5-1 1.03-2.4 1.59-1.4.55-3.11.55-1.73 0-3.14-.55-1.41-.56-2.4-1.59-1-1.04-1.55-2.5-.55-1.47-.55-3.3 0-1.82.55-3.29t1.55-2.49q.99-1.02 2.4-1.57 1.41-.56 3.14-.56m0 13q1.92 0 2.84-1.29t.92-3.77q0-2.5-.92-3.8t-2.84-1.3q-1.95 0-2.89 1.31t-.94 3.79q0 2.47.94 3.77.94 1.29 2.89 1.29m24.7-12.76v15.39h-3.7v-12.55h-3.78q-.18 2.83-.56 4.88-.37 2.04-.89 3.47t-1.15 2.29q-.64.86-1.36 1.34t-1.49.64q-.76.15-1.54.15-.83 0-1.21-.14t-.38-.4v-2.31h.88q.5 0 .99-.14.5-.15.96-.62.47-.46.89-1.33.42-.86.77-2.28.35-1.41.62-3.47t.42-4.92zm6.59 5.93h6.99q0-.73-.2-1.36-.21-.64-.61-1.12-.41-.48-1.03-.76-.62-.27-1.45-.27-1.6 0-2.52.91-.93.92-1.18 2.6m9.45 2.23h-9.53q.09 1.19.42 2.05t.87 1.42q.54.57 1.29.84.74.28 1.64.28t1.55-.21 1.14-.46q.49-.26.86-.47.36-.21.71-.21.46 0 .69.34l1.06 1.36q-.61.72-1.38 1.2-.76.49-1.59.78-.84.3-1.7.41-.86.12-1.67.12-1.61 0-2.99-.53t-2.4-1.57-1.6-2.58q-.59-1.54-.59-3.57 0-1.57.51-2.96t1.47-2.41q.95-1.03 2.32-1.63t3.1-.6q1.45 0 2.68.47 1.23.46 2.12 1.35.88.9 1.39 2.19.5 1.3.5 2.97 0 .84-.18 1.13t-.69.29m17.05 4.48h2.84v6.8q0 .51-.3.81t-.77.3h-2.31v-5.16h-12.87v-15.39h3.71v12.64h6v-12.64h3.7z"/></svg>