<svg xmlns="http://www.w3.org/2000/svg" width="400" height="500" viewBox="0 0 400 500"><rect width="100%" height="100%" fill="#34495e"/><path fill="#ffffff" d="M122.385 214.645h7.98v57.12h-10.67v-35.79q0-2.01.1-4.22.1-2.22.46-4.7-.79 2.21-1.72 4.08-.93 1.88-1.8 3.3l-21.84 34.05q-.36.59-.85 1.19-.5.59-1.09 1.04-.59.46-1.3.75-.71.3-1.46.3h-7.98v-57.12h10.66v35.79q0 2.01-.1 4.25-.1 2.23-.45 4.72.79-2.22 1.72-4.11.93-1.9 1.83-3.32l21.81-34.05q.35-.59.85-1.18.49-.6 1.08-1.05.6-.45 1.29-.75t1.48-.3m30.14 50.17h16.03v-26.11h-9.95q-.4 5.09-.99 9.18t-1.38 7.29-1.72 5.57-1.99 4.07m25.51-.28h7.43v17.9q0 1.34-.77 2.13t-2 .79h-6.08v-13.59h-30.33v10.82q0 1.03-.66 1.9-.65.87-2.03.87h-6.16v-20.54h1.14q1.39 0 2.69-.38 1.3-.37 2.51-1.56 1.2-1.18 2.29-3.41 1.08-2.24 1.95-5.97t1.52-9.18q.66-5.45 1.05-13.08h27.45zm44.05-33.3h5.92v40.53h-9.76v-23.66q0-.91.1-2 .1-1.08.26-2.19-.79 1.82-1.74 3.2-.08.08-.79 1.09t-1.83 2.59q-1.13 1.58-2.55 3.57-1.42 2-2.89 4.05-3.43 4.86-7.78 10.98-.55.83-1.44 1.62t-2.03.79h-5.97v-40.53h9.76v23.66q0 .91-.1 2-.1 1.08-.26 2.19.87-1.94 1.74-3.2.04-.08.75-1.07.71-.98 1.84-2.56 1.12-1.58 2.55-3.58 1.42-1.99 2.88-4.09 3.44-4.86 7.82-10.98.55-.87 1.46-1.64t2.06-.77m33.49-.63q4.51 0 8.2 1.46t6.32 4.15 4.05 6.56 1.42 8.65q0 4.82-1.42 8.69t-4.05 6.59q-2.63 2.73-6.32 4.19t-8.2 1.46q-4.54 0-8.25-1.46-3.72-1.46-6.34-4.19-2.63-2.72-4.07-6.59t-1.44-8.69q0-4.78 1.44-8.65t4.07-6.56q2.62-2.69 6.34-4.15 3.71-1.46 8.25-1.46m0 34.25q5.06 0 7.49-3.4t2.43-9.95q0-6.56-2.43-10-2.43-3.43-7.49-3.43-5.13 0-7.6 3.45-2.47 3.46-2.47 9.98 0 6.51 2.47 9.93t7.6 3.42m62.21-33.62v7.23h-14.45v33.3h-9.76v-33.3h-14.42v-7.23z"/></svg>